<svg width="800" height="500" viewBox="0 0 800 500" xmlns="http://www.w3.org/2000/svg">
  <!-- Background with rounded corners -->
  <rect width="800" height="500" rx="15" fill="#2c2c3d" />

  <!-- Header Bar -->
  <rect x="20" y="20" width="760" height="50" rx="8" fill="#33334a" />
  <circle cx="45" cy="45" r="10" fill="#6366f1" />
  <rect x="65" y="40" width="100" height="10" rx="2" fill="#4f4f66" />
  <rect x="620" y="35" width="60" height="20" rx="4" fill="#4f4f66" />
  <rect x="690" y="35" width="70" height="20" rx="4" fill="#6366f1" />

  <!-- Left Sidebar -->
  <rect x="20" y="90" width="200" height="390" rx="8" fill="#33334a" />
  <!-- Brain Dump Header -->
  <rect x="35" y="110" width="170" height="30" rx="4" fill="#3c3c53" />
  <circle cx="50" cy="125" r="8" fill="#6366f1" />
  <rect x="65" y="120" width="80" height="10" rx="2" fill="#6c6c89" />

  <!-- Tasks in Brain Dump -->
  <rect x="35" y="160" width="170" height="60" rx="6" fill="#3c3c53" />
  <rect x="45" y="175" width="120" height="8" rx="2" fill="#6c6c89" />
  <rect x="45" y="190" width="80" height="8" rx="2" fill="#6c6c89" />
  <circle cx="180" cy="183" r="8" fill="#5c5c76" />

  <rect x="35" y="230" width="170" height="60" rx="6" fill="#3c3c53" />
  <rect x="45" y="245" width="130" height="8" rx="2" fill="#6c6c89" />
  <rect x="45" y="260" width="90" height="8" rx="2" fill="#6c6c89" />
  <circle cx="180" cy="253" r="8" fill="#5c5c76" />

  <rect x="35" y="300" width="170" height="60" rx="6" fill="#3c3c53" />
  <rect x="45" y="315" width="110" height="8" rx="2" fill="#6c6c89" />
  <rect x="45" y="330" width="70" height="8" rx="2" fill="#6c6c89" />
  <circle cx="180" cy="323" r="8" fill="#5c5c76" />

  <!-- Main Content - Kanban Columns -->
  <rect x="240" y="90" width="540" height="390" rx="8" fill="#33334a" />

  <!-- Kanban Column 1 -->
  <rect x="260" y="110" width="160" height="350" rx="6" fill="#3c3c53" />
  <rect x="270" y="120" width="80" height="15" rx="2" fill="#6c6c89" />
  <rect x="270" y="140" width="50" height="10" rx="2" fill="#5c5c76" />

  <!-- Tasks in Column 1 -->
  <rect x="270" y="160" width="140" height="70" rx="6" fill="#454563" />
  <rect x="280" y="175" width="100" height="8" rx="2" fill="#6c6c89" />
  <rect x="280" y="190" width="70" height="8" rx="2" fill="#6c6c89" />
  <rect x="280" y="210" width="40" height="15" rx="2" fill="#6366f1" />

  <rect x="270" y="240" width="140" height="70" rx="6" fill="#454563" />
  <rect x="280" y="255" width="110" height="8" rx="2" fill="#6c6c89" />
  <rect x="280" y="270" width="80" height="8" rx="2" fill="#6c6c89" />
  <rect x="280" y="290" width="40" height="15" rx="2" fill="#6366f1" />

  <!-- Kanban Column 2 -->
  <rect x="440" y="110" width="160" height="350" rx="6" fill="#3c3c53" />
  <rect x="450" y="120" width="80" height="15" rx="2" fill="#6c6c89" />
  <rect x="450" y="140" width="50" height="10" rx="2" fill="#5c5c76" />

  <!-- Tasks in Column 2 -->
  <rect x="450" y="160" width="140" height="70" rx="6" fill="#454563" />
  <rect x="460" y="175" width="100" height="8" rx="2" fill="#6c6c89" />
  <rect x="460" y="190" width="70" height="8" rx="2" fill="#6c6c89" />
  <rect x="460" y="210" width="40" height="15" rx="2" fill="#6366f1" />

  <rect x="450" y="240" width="140" height="70" rx="6" fill="#454563" />
  <rect x="460" y="255" width="110" height="8" rx="2" fill="#6c6c89" />
  <rect x="460" y="270" width="80" height="8" rx="2" fill="#6c6c89" />
  <rect x="460" y="290" width="40" height="15" rx="2" fill="#6366f1" />

  <!-- Kanban Column 3 (partial) -->
  <rect x="620" y="110" width="160" height="350" rx="6" fill="#3c3c53" opacity="0.8" />
  <rect x="630" y="120" width="80" height="15" rx="2" fill="#6c6c89" />
  <rect x="630" y="140" width="50" height="10" rx="2" fill="#5c5c76" />

  <rect x="630" y="160" width="140" height="70" rx="6" fill="#454563" />
  <rect x="640" y="175" width="100" height="8" rx="2" fill="#6c6c89" />
  <rect x="640" y="190" width="70" height="8" rx="2" fill="#6c6c89" />
</svg>
